<?xml version="1.0" standalone="no"?>
<!DOCTYPE svg PUBLIC "-//W3C//DTD SVG 20010904//EN"
 "http://www.w3.org/TR/2001/REC-SVG-20010904/DTD/svg10.dtd">
<svg version="1.0" xmlns="http://www.w3.org/2000/svg"
 width="1110.000000pt" height="1280.000000pt" viewBox="0 0 1110.000000 1280.000000"
 preserveAspectRatio="xMidYMid meet">
<metadata>
Created by potrace 1.15, written by Peter Selinger 2001-2017
</metadata>
<g transform="translate(0.000000,1280.000000) scale(0.100000,-0.100000)"
fill="#000000" stroke="none">
<path d="M164 12786 c-4 -10 1 -25 11 -36 10 -11 16 -22 14 -24 -2 -3 -37 2
-77 11 -40 9 -75 13 -78 10 -16 -16 10 -37 70 -57 36 -12 66 -25 66 -29 0 -13
-49 -31 -106 -37 -61 -8 -76 -20 -49 -41 28 -20 94 -16 202 12 53 14 106 22
117 19 41 -13 146 -78 146 -91 0 -10 -23 -13 -90 -13 -88 0 -140 -13 -140 -34
1 -34 20 -41 118 -43 77 -2 113 -8 167 -28 58 -22 78 -25 130 -20 76 9 101 -3
170 -77 85 -91 152 -254 225 -547 67 -269 103 -382 222 -696 117 -309 154
-414 286 -800 119 -346 122 -354 294 -700 96 -192 183 -371 193 -398 21 -55
17 -184 -9 -278 -8 -31 -20 -123 -27 -205 -11 -138 -10 -159 10 -282 29 -181
68 -271 162 -372 39 -41 141 -169 228 -285 148 -197 178 -231 498 -550 l340
-341 -34 -49 c-19 -28 -50 -79 -70 -114 -20 -35 -66 -93 -102 -130 -60 -60
-78 -90 -195 -316 -86 -167 -175 -320 -268 -461 l-138 -211 -35 -154 c-20 -85
-49 -201 -66 -257 -17 -57 -28 -109 -26 -115 2 -6 32 -20 68 -32 l64 -20 6
-53 c9 -71 29 -92 90 -92 43 0 49 -3 69 -35 12 -19 33 -44 46 -54 l26 -20 61
48 c34 27 71 58 81 70 l19 21 43 -40 c49 -45 53 -46 95 -24 27 13 33 14 47 1
10 -8 42 -26 72 -41 l55 -26 23 27 c36 45 68 121 97 233 34 130 76 222 115
250 17 12 75 30 139 44 146 30 150 33 144 144 -6 110 4 151 44 177 17 11 39
32 49 47 11 15 32 30 49 34 16 3 56 24 88 46 32 22 60 39 61 37 2 -2 8 -153
15 -336 l11 -332 82 -293 c45 -161 84 -295 88 -298 11 -8 16 -36 65 -345 32
-201 61 -349 97 -482 l51 -191 -37 -339 c-20 -186 -41 -392 -46 -458 -6 -66
-15 -147 -20 -180 -5 -33 -19 -150 -30 -259 -12 -110 -25 -220 -30 -246 -5
-26 -16 -98 -24 -161 -9 -74 -44 -222 -97 -414 l-83 -300 -4 -183 c-3 -160 -1
-195 18 -285 34 -159 103 -357 172 -493 57 -114 67 -127 116 -160 45 -30 58
-34 90 -28 57 10 70 20 99 77 40 78 43 197 9 388 -25 142 -26 149 -11 227 26
137 38 159 129 247 63 61 92 97 119 154 54 108 52 114 -51 224 -151 161 -153
181 -53 478 38 112 105 301 149 419 95 256 160 453 203 616 l31 119 -1 280
c-2 384 -15 567 -53 745 l-30 145 37 510 c28 389 39 608 45 925 8 392 10 426
39 610 17 107 31 207 31 221 0 23 18 36 163 117 146 82 350 184 480 241 39 16
47 24 43 39 -8 25 107 118 158 127 24 5 48 20 72 47 35 39 37 40 86 34 28 -4
63 -10 79 -13 23 -4 30 0 43 26 10 19 27 33 44 37 60 13 62 15 62 45 0 16 17
79 37 140 l37 111 -13 100 c-7 55 -11 101 -9 103 2 1 50 26 108 55 58 29 148
77 201 106 67 38 195 90 420 173 300 109 337 125 494 215 197 114 287 147 612
226 l208 51 265 136 c331 169 395 205 655 367 116 72 235 140 266 153 30 12
129 40 220 63 265 65 380 99 454 134 48 23 132 83 270 197 110 90 227 182 260
203 47 30 77 62 135 144 88 122 136 210 145 263 8 43 -18 91 -81 150 -72 67
-78 69 -142 52 -119 -31 -269 -115 -412 -230 -41 -34 -155 -147 -253 -252
-244 -260 -266 -275 -543 -366 -307 -101 -448 -131 -884 -186 -293 -37 -456
-62 -630 -100 -313 -67 -286 -59 -525 -149 -115 -43 -246 -86 -290 -95 -82
-17 -377 -89 -411 -101 -10 -4 0 7 23 24 61 45 63 66 14 152 -23 39 -41 85
-41 101 0 35 -19 45 -59 31 -28 -10 -30 -9 -45 29 -9 22 -24 43 -33 46 -26 10
-114 -12 -205 -52 -60 -27 -105 -39 -163 -45 -96 -10 -176 -35 -310 -99 -144
-69 -257 -142 -452 -294 -134 -104 -183 -137 -220 -146 -26 -7 -183 -83 -348
-168 l-300 -157 -65 2 c-36 1 -241 1 -457 1 l-391 0 -60 50 -60 50 -7 85 c-15
180 -4 271 64 516 34 124 75 266 92 316 l30 92 172 164 c95 90 267 247 382
348 116 101 370 342 567 536 l356 351 186 117 c116 74 216 145 264 190 42 39
113 103 157 141 44 38 152 140 240 225 127 124 371 325 450 372 6 3 103 -9
217 -27 203 -32 209 -34 285 -78 91 -53 127 -64 148 -47 48 40 -11 110 -134
160 -45 18 -81 34 -81 35 0 2 36 29 80 60 l80 57 48 -16 c173 -57 412 -62 412
-10 0 15 -18 20 -105 29 -77 8 -140 24 -129 34 5 4 42 17 81 30 74 22 93 39
93 82 0 27 34 29 -685 -45 -82 -8 -195 -19 -250 -25 -68 -6 -121 -17 -165 -35
-96 -39 -250 -134 -427 -262 -143 -105 -509 -332 -817 -509 -113 -65 -123 -74
-230 -195 -128 -147 -381 -365 -691 -595 -162 -121 -210 -151 -326 -204 -75
-34 -235 -114 -354 -178 -196 -103 -228 -124 -323 -208 l-106 -94 -30 21 c-32
21 -66 56 -93 95 -14 21 -13 25 6 57 17 26 35 39 74 52 75 24 182 80 256 132
63 45 66 46 165 53 56 4 102 8 104 8 11 4 101 139 127 191 81 162 83 238 10
310 -35 34 -47 55 -55 95 -33 158 -109 286 -249 417 -220 207 -586 296 -809
198 -77 -34 -140 -122 -146 -207 -3 -32 -13 -58 -30 -80 -30 -37 -43 -41 -62
-15 -12 16 -13 15 -14 -5 0 -12 5 -25 12 -29 17 -11 -19 -22 -103 -30 -93 -8
-102 -15 -93 -71 6 -41 5 -43 -19 -43 -37 0 -53 -25 -40 -60 10 -27 9 -29 -16
-32 -24 -3 -26 -6 -23 -45 2 -40 0 -44 -37 -67 -82 -52 -66 -93 80 -215 118
-99 196 -197 224 -281 15 -45 15 -55 -14 -226 -32 -186 -53 -269 -78 -294 -13
-13 -20 -9 -63 37 -47 51 -199 291 -353 558 -93 161 -163 352 -218 594 -35
150 -69 265 -132 437 -8 22 -42 78 -75 125 -39 56 -120 209 -239 454 -99 204
-186 384 -192 401 -15 39 -65 86 -211 201 -95 74 -138 100 -245 147 -71 32
-160 78 -197 103 l-68 46 -92 1 c-94 1 -149 19 -200 64 -16 13 -18 13 -24 -2z"/>
</g>
</svg>
