<?xml version="1.0" standalone="no"?>
<svg xmlns="http://www.w3.org/2000/svg" width="1024pt" height="1024pt" version="1.0" viewBox="0 0 1024 1024">
  <path fill="#030303" d="M523 994c0-1 0-4 1-7 1-4 1-10 2-14 1-5 1-11 2-15s2-11 3-17c0-6 2-16 3-22s3-17 4-23c5-29 7-38 12-62 8-34 10-44 12-55 3-22 4-27 4-39 0-14-2-21-7-26-4-3-17-11-35-20-15-8-33-18-41-23-4-2-8-4-8-3-1 0-6 5-11 11-28 31-49 53-73 75-52 47-76 69-121 108-43 39-130 115-143 125l-3 3v-2c0-1 5-9 11-19 10-16 36-55 43-68 4-5 29-45 37-56 10-17 45-69 51-78 4-5 18-25 32-45s28-40 32-46c4-5 16-22 27-38 12-17 21-30 21-31 0 0-2-3-5-5-8-8-16-21-20-34-2-10-2-29 1-38 6-18 20-30 41-36 7-1 8-1 16 0 16 3 33 9 52 18 8 3 9 3 20 2 20-3 27-2 39 5 9 6 15 13 19 19 2 4 2 7 3 16 1 11 1 11 4 14 1 1 13 10 25 20 42 34 61 51 70 63 7 9 11 20 13 33 2 12 2 17 0 31-3 24-9 42-29 88-22 48-34 73-37 81-2 3-4 8-5 11-5 12-17 34-28 51-24 38-32 49-33 50h-1v-2Zm167-150v-1h12l-2 1c-2 0-4 1-6 1h-4v-1ZM360 476c-24-15-33-22-48-37-20-19-42-46-47-59-5-12-10-27-13-39-2-14-2-38 1-50 3-11 6-19 13-29 21-32 69-58 122-67 14-2 34-1 47 2 22 6 32 15 38 32 3 8 3 12 0 18s-16 19-22 22c-7 4-18 7-25 8-34 3-58 7-69 9-9 2-22 8-29 13-5 4-10 12-13 21-3 8-3 27-1 38 5 24 18 53 36 83 4 7 10 17 13 22l10 15c3 3 5 7 6 8l2 3h-1s-9-6-20-13Zm348-24c-16-4-27-11-39-24-20-21-35-49-41-75-9-36-5-60 12-78 9-8 14-11 22-12 10-1 23 8 30 21 4 7 8 19 10 29 1 3 1 8 2 11 1 2 2 8 3 13 3 20 9 31 19 42 12 12 21 14 41 7 23-7 61-28 79-44 20-17 43-45 50-60l3-7h2l3 1-1 5c-1 30-8 46-29 79-16 24-29 38-48 54-22 18-52 33-80 39-10 2-30 1-38-1ZM587 218c-28-4-56-24-68-50-17-38-6-83 26-108 16-12 32-18 51-19 26-1 47 7 66 26 9 9 14 15 19 26 10 22 11 48 1 71-14 34-47 55-83 55-4 0-9-1-12-1Z"/>
  <path fill="#353535" d="M523 994c0-1 0-4 1-7 1-4 1-10 2-14 1-5 1-11 2-15s2-11 3-17c0-6 2-16 3-22s3-17 4-23c5-29 7-38 12-62 8-34 10-44 12-55 3-22 4-27 4-39 0-14-2-21-7-26-4-3-17-11-35-20-15-8-33-18-41-23-4-2-8-4-8-3-1 0-6 5-11 11-28 31-49 53-73 75-52 47-76 69-121 108-43 39-130 115-143 125l-3 3v-2c0-1 5-9 11-19 10-16 36-55 43-68 4-5 29-45 37-56 10-17 45-69 51-78 4-5 18-25 32-45s28-40 32-46c4-5 16-22 27-38 12-17 21-30 21-31 0 0-2-3-5-5-8-8-16-21-20-34-2-10-2-29 1-38 6-18 20-30 41-36 7-1 8-1 16 0 16 3 33 9 52 18 8 3 9 3 20 2 20-3 27-2 39 5 9 6 15 13 19 19 2 4 2 7 3 16 1 11 1 11 4 14 1 1 13 10 25 20 42 34 61 51 70 63 7 9 11 20 13 33 2 12 2 17 0 31-3 24-9 42-29 88-22 48-34 73-37 81-2 3-4 8-5 11-5 12-17 34-28 51-24 38-32 49-33 50h-1v-2Zm6-9c1-2 9-13 17-25 16-25 24-39 31-53 2-5 6-13 8-18l4-8c0-1 2-5 5-11 2-5 4-9 4-9 0-1 19-43 23-52 13-29 25-56 27-65 0-2 2-6 2-9 7-23 7-50 0-67-4-10-12-21-25-33-11-11-16-15-38-33-28-22-43-34-44-36-1-1-1-5-1-9 0-16-6-26-21-36-11-6-17-8-34-5-7 0-15 1-16 1-2-1-9-3-15-6-6-2-15-6-19-7-5-2-9-4-10-4-2 0-7-2-13-3-11-2-11-2-20 0-13 4-26 12-33 22-5 7-8 20-8 30 0 17 8 36 21 51 3 3 6 7 6 7 0 1-4 8-10 16-13 18-62 89-72 103-27 38-52 76-80 119-5 7-13 19-18 26-4 7-13 21-20 32-19 30-39 61-41 64-1 1-3 5-5 9l-3 6 6-5 6-6s4-3 8-7 8-7 8-7 5-5 12-10c10-9 23-21 43-38 5-5 13-11 17-15 26-23 54-47 61-53 4-4 9-9 12-11l4-4c0-1 24-22 37-33 2-2 9-8 15-13 5-6 11-11 14-13l4-4c3-3 17-16 23-22 5-3 9-7 9-8 5-4 33-34 42-44 7-8 14-16 17-19s6-5 6-5c1 0 5 2 8 4 9 5 13 8 30 16 17 9 37 20 42 24 5 3 11 10 12 15 2 6 2 19 1 28-3 26-6 40-12 63 0 4-2 10-3 14 0 3-1 8-2 11-3 12-4 21-6 30-1 6-3 18-5 28-3 15-4 22-7 43-1 3-1 8-2 12-1 3-2 11-2 17-1 6-2 13-3 15v4c1 0 2-2 3-4Zm161-141v-1h12l-2 1c-2 0-4 1-6 1h-4v-1ZM360 476c-24-15-33-22-48-37-20-19-42-46-47-59-5-12-10-27-13-39-2-14-2-38 1-50 3-11 6-19 13-29 21-32 69-58 122-67 14-2 34-1 47 2 22 6 32 15 38 32 3 8 3 12 0 18s-16 19-22 22c-7 4-18 7-25 8-34 3-58 7-69 9-9 2-22 8-29 13-5 4-10 12-13 21-3 8-3 27-1 38 5 24 18 53 36 83 4 7 10 17 13 22l10 15c3 3 5 7 6 8l2 3h-1s-9-6-20-13Zm8-2c-2-2-7-11-12-18-4-8-10-18-13-23-5-8-16-29-17-33-1-1-2-6-4-9-4-10-6-18-9-28-2-8-2-12-2-24 0-13 0-15 2-22 5-13 13-21 28-28 9-4 12-5 26-7 4-1 32-5 43-6 31-3 40-6 52-19 9-9 12-15 10-23-2-12-11-24-21-29-9-4-21-7-31-8s-30 0-35 1c-2 0-6 1-9 2-34 7-75 27-95 47-11 11-13 14-18 24-9 16-13 43-10 59 0 2 1 8 2 12 2 9 9 33 11 36 0 0 1 2 2 3 1 3 18 28 26 37 22 24 46 45 72 59l4 3h1v-1l-3-5Zm340-22c-16-4-27-11-39-24-20-21-35-49-41-75-9-36-5-60 12-78 9-8 14-11 22-12 10-1 23 8 30 21 4 7 8 19 10 29 1 3 1 8 2 11 1 2 2 8 3 13 3 20 9 31 19 42 12 12 21 14 41 7 23-7 61-28 79-44 20-17 43-45 50-60l3-7h2l3 1-1 5c-1 30-8 46-29 79-16 24-29 38-48 54-22 18-52 33-80 39-10 2-30 1-38-1Zm35-2c16-2 30-7 47-16 11-5 29-16 36-22l30-30c1-2 2-4 4-6 6-8 24-35 28-45 9-17 11-27 12-45l1-9-1 1c-4 11-13 23-29 43-13 14-29 28-43 37-8 5-30 17-36 20-18 9-38 16-46 15-11-2-23-12-32-26-4-7-8-21-10-30 0-3-1-7-1-8s-1-6-2-9c-5-29-13-43-28-52-10-6-19-3-31 8-16 17-20 43-12 77 3 13 6 21 12 33 12 24 37 53 52 59 1 0 4 1 6 2 10 5 29 6 43 3ZM587 218c-28-4-56-24-68-50-17-38-6-83 26-108 16-12 32-18 51-19 26-1 47 7 66 26 9 9 14 15 19 26 10 22 11 48 1 71-14 34-47 55-83 55-4 0-9-1-12-1Zm26-2c27-5 47-19 62-43 3-5 5-9 5-10s0-2 1-3c0 0 2-4 3-9 3-12 3-30 0-42-7-26-24-47-48-58-13-6-21-7-36-7s-24 1-35 7c-3 1-5 2-6 2s-13 9-19 14c-25 25-33 59-22 92 5 13 11 23 22 33 14 14 28 21 47 24 12 1 15 1 26 0Z"/>
  <path fill="#6f6f6f" d="M523 994s1-6 1-11c1-5 2-14 3-18 1-5 2-11 2-12l1-3v1c0 2-2 17-4 31-1 3-1 8-1 9l1 2 11-17c6-10 14-23 19-30 13-21 20-34 39-76 10-23 20-44 21-47 25-56 30-67 35-87s6-42 3-56c-3-17-10-28-28-46-12-11-20-18-60-50-24-19-23-17-23-29-1-15-5-23-17-31-14-10-21-12-39-10-6 1-12 2-13 3-1 0-4-1-8-3-25-11-51-19-63-19-11 0-27 7-36 16-10 10-16 26-15 42 1 4 1 9 2 11v4l-1-3c-1-2-1-8-1-15 0-12 0-14 2-20 6-18 20-30 41-36 7-1 8-1 16 0 16 3 33 9 52 18 8 3 9 3 20 2 20-3 27-2 39 5 9 6 15 13 19 19 2 4 2 7 3 16 1 11 1 11 4 14 1 1 13 10 25 20 42 34 61 51 70 63 7 9 11 20 13 33 2 12 2 17 0 31-3 24-9 42-29 88-22 48-34 73-37 81-2 3-4 8-5 11-5 12-17 34-28 51-24 38-32 49-33 50h-1v-2Zm-399-6c0-1 5-9 11-19 10-16 36-55 43-68 4-5 29-45 37-56 10-17 45-69 51-78 4-5 18-25 32-45s28-40 32-46c4-5 16-22 27-38 12-17 21-30 21-31 0 0-2-3-5-5-7-7-17-23-19-32v-2c1 0 2 3 3 7 4 9 9 17 16 24 3 4 6 7 6 8s-5 9-12 19c-6 9-14 20-18 26-6 8-19 27-63 89-35 50-72 106-134 204l-24 38v1h1l2-2c1-1 6-5 11-9 22-19 60-53 122-106 21-19 77-69 92-83 5-5 20-18 32-29 23-21 34-32 67-68 11-12 20-21 20-21 1 0 4 2 7 4 4 2 16 8 28 15 36 19 45 24 50 29 7 7 9 18 7 41-2 12-5 30-7 39v2h-1c0-1 1-7 2-15 4-24 5-28 5-41 0-14-2-21-7-26-4-3-17-11-35-20-15-8-33-18-41-23-4-2-8-4-8-3-1 0-6 5-11 11-28 31-49 53-73 75-52 47-76 69-121 108-43 39-130 115-143 125l-3 3v-2Zm407-45c0-4 1-13 2-21 10-54 11-60 17-88 2-10 5-22 6-27l2-10 1 1c0 1-1 6-2 11-9 39-11 48-16 78-5 27-6 33-8 46-1 4-1 9-2 12l-1 5 1-7Zm159-99v-1h12l-2 1c-2 0-4 1-6 1h-4v-1ZM360 476c-24-15-33-22-48-37-20-19-42-46-47-59-5-12-10-27-13-39-2-14-2-38 1-50 3-11 6-19 13-29 21-32 69-58 122-67 14-2 34-1 47 2 22 6 32 15 38 32 3 8 3 12 0 18s-16 19-22 22c-7 4-18 7-25 8-34 3-58 7-69 9-9 2-22 8-29 13-5 4-10 12-13 21-3 8-3 27-1 38 5 24 18 53 36 83 4 7 10 17 13 22l10 15c3 3 5 7 6 8l2 3h-1s-9-6-20-13Zm8-4c-19-28-37-62-45-80-11-30-14-49-10-68 3-14 9-24 22-31 15-8 28-11 84-17 13-1 23-4 30-8 8-4 19-15 23-22 2-5 2-6 1-11-2-12-10-24-19-30-5-2-18-6-26-8-9-2-33-2-42 0-46 8-92 31-113 57-11 14-15 23-19 39-3 12-3 32 0 47 2 12 8 29 12 39 8 19 44 60 70 79 5 4 16 12 24 17l14 9h1v-1l-7-11Zm340-20c-16-4-27-11-39-24-20-21-35-49-41-75-9-36-5-60 12-78 9-8 14-11 22-12 11-1 24 9 31 23 4 8 9 22 9 30l1 6-1-3c0-2-1-6-2-9-2-9-6-21-10-27-6-11-17-19-27-18-15 0-32 18-37 40-3 15 0 42 7 62 11 31 37 66 58 77 15 8 35 11 54 7 42-8 84-35 112-70 8-10 22-31 28-41 11-20 15-32 17-54v-9h-1c-1 0-2 3-4 7-8 16-39 51-58 65s-52 32-72 39c-19 6-29 5-41-7-13-14-17-23-22-48 0-6-1-10-1-11h1l1 4c4 29 9 41 21 53s21 14 41 7c23-7 61-28 79-44 20-17 43-45 50-60l3-7h2l3 1-1 5c-1 30-8 46-29 79-16 24-29 38-48 54-22 18-52 33-80 39-10 2-30 1-38-1ZM587 218c-28-4-56-24-68-50-17-38-6-83 26-108 16-12 32-18 51-19 26-1 47 7 66 26 9 9 14 15 19 26 10 22 11 48 1 71-14 34-47 55-83 55-4 0-9-1-12-1Zm32-3c30-6 55-29 64-59 8-25 4-52-10-74-4-7-16-19-23-24-32-22-72-21-103 2-41 31-47 93-11 130 22 23 52 32 83 25Z"/>
  <path fill="#a2a2a2" d="M523 993v-3l1 2v2h2v-1s1-2 2-3l2-2-1 1c-1 3-4 7-5 7h-1v-3Zm-399-5c0-1 1-2 2-4l1-1-1 2-1 2h2l1-1-1 2c-1 1-2 2-3 2v-2Zm400-2v-3l1 1v4l-1 2v-4Zm-395 0s1-2 3-4l4-2-3 3c-2 2-4 3-4 3Zm404-3c0-2 2-3 2-4l2-2-1 2c0 1-2 2-2 4l-2 2 1-2Zm-394-6 4-4-3 4c-2 1-4 3-4 3l3-3Zm386 1v-1l1 1v2h-1v-2Zm-394-2c0-1 2-4 3-5l2-2-2 3c0 1-2 4-3 5l-2 3 2-4Zm13-3s1-2 3-4l4-2-3 3c-2 2-4 3-4 3Zm382-3v-3l1 1v4l-1 2v-4Zm-371-7 4-4-3 4c-2 1-4 3-4 3l3-3Zm372 1v-2l1 1v2l-1 2v-3Zm-388 0c0-2 2-3 2-4l2-2-1 2c0 1-2 2-2 4l-2 2 1-2Zm410-6c0-1 2-4 3-5l2-2-2 3c0 1-2 4-3 5l-2 3 2-4Zm-389 1s1-2 3-4l4-2-3 3c-2 2-4 3-4 3Zm368-3v-2l1 1v2l-1 2v-3Zm-358-6 4-4-3 4c-2 1-4 3-4 3l3-3Zm359 1v-1l1 1v2h-1v-2Zm-354-5s1-2 3-4l4-2-3 3c-2 2-4 3-4 3Zm355-3v-2l1 1v2l-1 2v-3Zm-375-5c1-1 1-2 2-2l-1 2c-1 1-1 2-2 2l1-2Zm376-1v-3l1 1v3l-1 2v-3Zm-345-1c0-1 2-2 2-2l-1 2c-1 1-3 2-3 2l2-2Zm378-2c1-1 1-2 2-2l-1 2c-1 1-1 2-2 2l1-2Zm-372-3 4-4-3 4c-2 1-4 3-4 3l3-3Zm-32-1c1-1 1-2 2-2l-1 2c-1 1-1 2-2 2l1-2Zm372 0v-2l1 1v2l-1 2v-3Zm35-1c1-1 1-2 2-2l-1 2c-1 1-1 2-2 2l1-2Zm-366-6 4-4-3 4c-3 2-5 4-5 4l4-4Zm332 1v-3l1 1v4l-1 2v-4Zm-368-1c0-2 2-3 2-4l2-2-1 2c0 1-2 2-2 4l-2 2 1-2Zm407-2c0-2 1-3 2-3l-1 3c-1 2-2 3-3 3l2-3Zm-38-3v-2l1 1v2l-1 2v-3Zm-324-3 4-4-3 4c-3 2-5 4-5 4l4-4Zm325-3v-3l1 1v3l-1 2v-3Zm-363-1c1-1 1-2 2-2l-1 2c-1 1-1 2-2 2l1-2Zm43 0s1-2 3-4l4-2-3 3c-2 2-4 3-4 3Zm364-5s0-1 1-1l1-1-1 1v2h-1v-1Zm-353-5 4-4-3 4c-2 1-4 3-4 3l3-3Zm356 0v-2h1v1l-1 1-1 2 1-2Zm-45-2v-1l1 1v2h-1v-2Zm-303-5 4-4-3 4c-2 1-4 3-4 3l3-3Zm304 0v-1l1 1v2h-1v-2Zm46 2c0-1 0-2 1-3l1-1v1s0 1-1 2l-1 2v-1Zm-398-7c1-1 1-2 2-2l-1 2c-1 1-1 2-2 2l1-2Zm353-1v-2l1 1v2l-1 2v-3Zm-296-2 4-4-3 4c-2 1-4 3-4 3l3-3Zm346-1v-2h1v1l-1 1-1 2 1-2Zm-49-2v-2l1 1v2l-1 2v-3Zm-292-1s1-2 3-4l4-2-3 3c-2 2-4 3-4 3Zm343-1v-2h1v1l-1 1-1 2 1-2Zm-50-4v-1l1 1v2h-1v-2Zm-346-1c0-2 2-3 2-4l2-2-1 2c0 1-2 2-2 4l-2 2 1-2Zm398 0c0-1 0-2 1-3l1-1v1s0 1-1 2l-1 2v-1Zm-334-4 4-4-3 4c-2 1-4 3-4 3l3-3Zm283 1v-2l1 1v2l-1 2v-3Zm-274-9 4-4-3 4c-3 2-5 4-5 4l4-4Zm275 2v-1l1 1v2h-1v-2Zm54 1c0-1 0-2 1-3l1-1v1s0 1-1 2l-1 2v-1Zm-53-7v-2l1 1v2l-1 2v-3Zm-338-2c1-1 1-2 2-2l-1 2c-1 1-1 2-2 2l1-2Zm68 1s1-2 3-4l4-2-3 3c-2 2-4 3-4 3Zm328-3c0-1 0-2 1-3l1-1v1s0 1-1 2l-1 2v-1Zm-56-5v-2l1 1v2l-1 2v-3Zm-260-3 4-4-3 4c-3 2-5 4-5 4l4-4Zm-73-1c1-1 2-2 2-3h1l-2 2c0 2-1 3-2 3l1-2Zm334-1v-1l1 1v2h-1v-2Zm59 1c0-1 1-3 2-5l2-3v1l-2 4-2 4v-1Zm84-3v-1h12l-2 1c-2 0-4 1-6 1h-4v-1Zm-473-2c0-2 2-3 2-4l2-2-1 2c0 1-2 2-2 4l-2 2 1-2Zm78-2 4-4-3 4c-2 1-4 3-4 3l3-3Zm253 1v-1l1 1v2h-1v-2Zm1-4v-1l1 1v2h-1v-2Zm62-1c0-1 0-2 1-3l1-1v1s0 1-1 2l-1 2v-1Zm-306-5 4-4-3 4c-3 2-5 4-5 4l4-4Zm246-2v-2l1 1v2l-1 2v-3Zm64-2c0-1 0-2 1-3l1-1v1s0 1-1 2l-1 2v-1Zm-304-1s1-2 3-4l4-2-3 3c-2 2-4 3-4 3Zm241-2v-1l1 1v2h-1v-2Zm1-4v-2l1 1v2l-1 2v-3Zm65-1s0-1 1-1l1-1-1 1v2h-1v-1Zm-295-4c2-3 5-5 5-5s-2 3-5 5l-4 5 4-5Zm297 1c0-1 0-2 1-3l1-1v1s0 1-1 2l-1 2v-1Zm-65-5v-1l1 1v2h-1v-2Zm-316-3c0-1 2-4 3-5l2-2-2 3c0 1-2 4-3 5l-2 3 2-4Zm383 2s0-1 1-1l1-1-1 1v2h-1v-1Zm-290-3 4-4-3 4c-2 1-4 3-4 3l3-3Zm224 0v-1l1 1v2h-1v-2Zm68 0c0-1 0-2 1-3l1-1v1s0 1-1 2l-1 2v-1Zm-282-9 4-4-3 4c-3 2-5 4-5 4l4-4Zm216 0v-1l1 1v2h-1v-2Zm69 2c0-1 1-3 2-4l1-2v1s-1 2-1 3l-2 3v-1Zm-378-7c2-3 3-5 4-5l-3 5c-2 2-3 4-4 4l3-4Zm104-5 4-4-3 4c-3 2-5 4-5 4l4-4Zm278 2s0-1 1-1l1-1-1 1v2h-1v-1Zm-71-2v-2l1 1v2l-1 2v-3Zm-306-3c1-1 2-2 2-3h1l-2 2c0 2-1 3-2 3l1-2Zm379 2c0-1 0-2 1-3l1-1v1s0 1-1 2l-1 2v-1Zm-72-5v-1l1 1v2h-1v-2Zm-198-3c2-3 5-5 5-5s-2 3-5 5l-4 5 4-5Zm-105 0c1-1 2-2 2-3h1l-2 2c0 2-1 3-2 3l1-2Zm378 1c0-1 1-3 2-4l1-2v1s-1 2-1 3l-2 3v-1Zm-74-3v-2l1 1v2l-1 2v-3Zm-188-8c3-4 6-6 6-6l-5 6c-3 3-6 5-6 5l5-5Zm189 3v-2l1 1v2l-1 2v-3Zm-300 0c0-1 1-1 2-2l2-1-2 1c-1 1-1 2-2 2Zm377-1c0-1 1-3 2-4l1-2v1s-1 2-1 3l-2 3v-1Zm-373-5c1-1 2-2 2-3h1l-2 2c0 2-1 3-2 3l1-2Zm297-2v-3l1 1v3l-1 2v-3Zm-180-4 4-4-3 4c-2 1-4 3-4 3l3-3Zm-112-1c1-2 2-3 3-3l-2 3c-1 2-2 3-3 3l2-3Zm293-1v-3l1 1v3l-1 2v-3Zm-170-8c2-3 5-5 5-5l-4 5c-3 3-6 5-6 5l5-5Zm-116-1c1-2 2-3 3-3l-2 3c-1 2-2 3-3 3l2-3Zm287-10v-9l1 4v10l-1 5v-10Zm-161 2c2-3 5-5 5-5s-2 3-5 5l-4 5 4-5Zm-121 1c0-1 1-1 2-2l2-1-2 1c-1 1-1 2-2 2Zm368-8v-1l1 1v2h-1v-2Zm-361-2c0-1 1-1 2-2l2-1-2 1c-1 1-1 2-2 2Zm132-9 9-9-8 9c-5 4-9 8-9 8l8-8Zm231 3v-2l1 1v2l-1 2v-3Zm-354-7c1-2 2-3 3-3l-2 3c-1 2-2 3-3 3l2-3Zm355 1v-2l1 1v2l-1 2v-3Zm-97-6-2-3 3 2c2 2 3 4 3 4s-2-1-4-3Zm98-2v-3l1 1v3l-1 2v-3Zm-351 0c0-1 1-1 2-2l2-1-2 1c-1 1-1 2-2 2Zm133-5c3-4 6-6 6-6l-5 6c-3 3-6 5-6 5l5-5Zm114 2-1-1 2 1c1 1 2 1 2 2 0 0-1-1-3-2Zm-5-3-1-1 2 1c1 1 2 1 2 2 0 0-1-1-3-2Zm110-7v-8l1 4v8l-1 5v-9Zm-344 2c2-3 3-5 4-5l-3 5c-2 2-3 4-4 4l3-4Zm227 1c-2 0-3-1-3-2l3 2c2 0 3 1 3 2 0 0-2-1-3-2Zm-89-9c2-3 5-5 5-5l-4 5c-3 3-6 5-6 5l5-5Zm78 3-1-1 2 1c1 1 2 1 2 2 0 0-1-1-3-2Zm-209-5c2-3 3-5 4-5l-3 5c-2 2-3 4-4 4l3-4Zm203 2c-2 0-3-1-3-2l3 2c2 1 4 1 4 2h-1s-2-1-3-2Zm133-5v-3l1 1v3l-1 2v-3Zm-145-1c-2-1-4-2-4-3l4 2c2 1 4 2 4 3l-4-2Zm-51-4 4-4-3 4c-3 2-5 4-5 4l4-4Zm-134-1c1-1 2-2 2-3h1l-2 2c0 2-1 3-2 3l1-2Zm174-1-1-1h1s1 0 2 1v1s-1 0-2-1Zm155-2v-1l1 1v2h-1v-2Zm-160-1-1-1 2 1c1 1 2 1 2 2 0 0-1-1-3-2Zm159-3v-1l1 1v2h-1v-2Zm-185-2 4-4-3 4c-2 1-4 3-4 3l3-3Zm19 1-1-1 2 1c1 1 2 1 2 2 0 0-1-1-3-2Zm-154-3c2-3 3-5 4-5l-3 5c-2 2-3 4-4 4l3-4Zm144-2-2-2h1s1 1 3 1l2 2h-1s-2-1-3-1Zm174-1c-1 0-1-1-1-2l1 1 1 2v1h-1v-2Zm-312-6c1-2 2-3 3-3l-2 3c-1 2-2 3-3 3l2-3Zm310 1-1-1 1 1 1 1v1h-1v-2Zm-2-4-1-1 1 1 1 1v1h-1v-2Zm-3-4-1-2c1 0 1 1 2 2l1 2c-1 0-1-1-2-2Zm-300 0c0-1 1-1 2-2l2-1-2 1c-1 1-1 2-2 2Zm296-6-2-2 2 2c2 1 3 2 3 3-1 0-2-1-3-3Zm-13-14-10-10 10 10 11 11-11-11Zm-276 10c0-1 1-1 2-2l2-1-2 1c-1 1-1 2-2 2Zm7-10c0-1 1-1 2-2l2-1-2 1c-1 1-1 2-2 2Zm7-10c0-1 1-1 2-2l2-1-2 1c-1 1-1 2-2 2Zm247-3-2-3 3 2c2 2 3 4 3 4s-2-1-4-3Zm-241-5c2-3 3-5 4-5l-3 5c-2 2-3 4-4 4l3-4Zm233-2-1-2 2 1c1 1 2 2 2 3-1 0-2-1-3-2Zm-5-5-2-2 2 2c2 1 3 2 3 3-1 0-2-1-3-3Zm-226-8-7-7-1-2 1 1s3 3 6 7l6 6v1l-5-6Zm221 4-1-1 1 1c1 1 2 1 2 2-1 0-1-1-2-2Zm-5-3-1-2 2 1c1 1 2 2 2 3-1 0-2-1-3-2Zm-4-4-1-1 1 1c1 1 2 1 2 2-1 0-1-1-2-2Zm-5-4-1-1 1 1c1 1 2 1 2 2-1 0-1-1-2-2Zm-5-3-1-2 2 1c1 1 2 2 2 3-1 0-2-1-3-2Zm-212-1c0-1-1-2-1-3l-1-1c1 0 2 1 2 3l2 2c-1 0-1-1-2-1Zm200-9c-5-4-9-7-9-8l10 8c5 4 9 7 9 8 0 0-5-3-10-8Zm-204 2-1-2c1 0 1 1 2 2l1 2c-1 0-1-1-2-2Zm-3-5v-2h1v1l1 2c-1 0-1 0-2-1Zm193-9-2-2 2 2c2 1 3 2 3 3-1 0-2-1-3-3Zm-198-8v-1l1 1v2h-1v-2Zm191-7v-7l1 3v7l-1 4v-7Zm-192 0v-4l1 2v4l-1 2v-4Zm0-11v-4l1 2v4l-1 2v-4Zm191 0s0-2-1-3v-1l1 1c1 1 1 3 1 3l-1 2v-2Zm-190-8c0-1 1-2 1-3l1-2v1c0 1-1 2-1 4l-1 2v-2Zm186-2-2-2h1c0 1 1 2 2 3l1 2c-1 0-2-1-2-3Zm-12-11-3-3 3 2c1 1 3 3 4 3v1s-2-1-4-3Zm-7-5-1-1 2 1c1 1 2 1 2 2 0 0-1-1-3-2Zm-157-3c1-2 3-5 5-6l2-2-3 4c-3 2-5 5-5 6l-1 1 2-3Zm152 0-3-1h1c1 0 2 1 4 1l2 2h-1s-2-1-3-2Zm-45 0-1-1 3 1c2 0 4 0 4 1h-2c-1 0-3 0-4-1Zm8-1h3l2 1h-6l1-1Zm8-1h3l2 1h-6l1-1Zm23 0h2v1h-3l1-1Zm-13-1h8l4 1h-16l4-1Zm-35-1-1-1h1s1 0 2 1v1s-1 0-2-1Zm-5-2-1-1h1s1 0 2 1l2 1h-1c-1 0-2 0-3-1Zm-7-3-1-1h1s1 0 2 1l2 1h-1c-1 0-2 0-3-1Zm-72-3c0-1 1-1 2-2l2-1c0 1-1 1-2 2l-2 1Zm58-2-1-1h1s1 1 3 1l2 1h-2c-1 0-2 0-3-1Zm-51-2 1-1h1v1h-2l-1 1 1-1Zm45 0-2-1h1c1 0 2 0 3 1l2 1h-1c-1 0-2-1-3-1Zm-8-2-2-1h2c1 0 2 1 4 1l2 1h-2c-1 0-3-1-4-1Zm-23-3c1 0 4-1 6-1h4c0 1-3 1-6 1l-6 1 2-1Zm12 0h2l2 1h-5l1-1Zm-33-7c-2-1-3-2-3-3l2 1 2 1h1v-1l-3-3-2-3 2 2c1 1 3 3 4 5l2 3h-1l-4-2Zm-11-7c-2-1-3-2-3-3l2 1c1 0 2 2 4 2l2 2h-1l-4-2Zm6-4-1-1 1 1c1 1 2 1 2 2-1 0-1-1-2-2Zm-25-9-1-1 2 1c1 1 2 1 2 2 0 0-1-1-3-2Zm-5-4-3-2 3 2c2 1 3 2 3 3 0 0-2-1-3-3Zm20-3-2-3c1 0 2 1 3 3l1 3c-1 0-2-1-2-3Zm-26-1-1-1 1 1c1 1 2 1 2 2-1 0-1-1-2-2Zm-5-3-1-2 2 1c1 1 2 2 2 3-1 0-2-1-3-2Zm27-3-2-3c1 0 2 1 3 3l1 3c-1 0-2-1-2-3Zm-33-3-3-3 3 3 4 4-4-4Zm391 3h4l2 1h-7l1-1Zm21 0h4l2 1h-7l1-1Zm-25-1h2v1h-3l1-1Zm32 0h2v1h-3l1-1Zm-37-1h2v1h-3l1-1Zm43 0c1 0 3-1 4-1h2l-2 1c-2 0-3 1-4 1h-2l2-1Zm8-2c1-1 2-1 3-1h2l-2 1c-2 0-3 1-3 1h-1l1-1Zm-449-14-12-12s6 5 13 12l11 12s-6-5-12-12Zm459 11c1 0 2-1 3-1h1l-2 1c-1 1-2 1-3 1h-1l2-1Zm-79-2-1-1 2 1c1 1 2 1 2 2 0 0-1-1-3-2Zm93-3v-1h2l1-1-1 1c0 1-1 1-1 1h-1Zm-110-10-7-8s4 3 8 8l7 7s-4-3-8-7Zm125 3c0-1 1-1 2-2l2-1c0 1-1 1-2 2l-2 1Zm9-6c1 0 2-2 4-2l2-1-2 2c-2 0-3 2-4 2l-2 1 2-2Zm-465-3-2-4c1 0 2 2 3 4l2 4c-1 0-2-2-3-4Zm-47-6-2-2 2 2c2 1 3 2 3 3-1 0-2-1-3-3Zm368 0-2-2 2 2c2 1 3 2 3 3-1 0-2-1-3-3Zm156 2c0-1 1-1 2-2l2-1-2 1c-1 1-1 2-2 2Zm4-3c0-1 1-1 2-2l2-1-2 1c-1 1-1 2-2 2Zm-164-4-1-1 1 1c1 1 2 1 2 2-1 0-1-1-2-2Zm-370-2-2-2 2 2c2 1 3 2 3 3-1 0-2-1-3-3Zm541 0c0-1 2-2 2-2l-1 2c-1 1-3 2-3 2l2-2Zm-496-1v-2h1v1l1 2c-1 0-1 0-2-1Zm-53-8c-2-4-5-7-5-8l-1-1c1 0 3 3 6 8l6 7c-1 0-3-3-6-6Zm373 4-1-1 1 1c1 1 2 1 2 2-1 0-1-1-2-2Zm184-2 4-4-3 4c-3 2-5 4-5 4l4-4Zm-508-5c-1 0-1-1-1-2l1 1 1 2v1h-1v-2Zm319 0-1-2c1 0 1 1 2 2l1 2c-1 0-1-1-2-2Zm201-7 4-4-3 4c-2 1-4 3-4 3l3-3Zm-205 0-1-2c1 0 1 1 2 2l1 2c-1 0-1-1-2-2Zm103-3h6l4 1h-13l3-1Zm-423-2c-1 0-1-1-1-2l1 1 1 2v1h-1v-2Zm412-1-1-1 2 1c1 1 3 1 3 2h-1s-1-1-3-2Zm-96-3-1-1 1 1 1 1v1h-1v-2Zm92 0-1-1 1 1c1 1 2 1 2 2-1 0-1-1-2-2Zm125 0c0-1 2-2 2-2l-1 2c-1 1-3 2-3 2l2-2Zm-535-1c-1 0-1-1-1-2l1 1 1 2v1h-1v-2Zm453 1c1-1 2-1 3-1h1l-2 1c-1 1-2 1-2 1h-1l1-1Zm-48-3-1-2 2 1c1 1 2 2 2 3-1 0-2-1-3-2Zm-89-1c-1 0-1-1-1-2l1 1 1 2v1h-1v-2Zm221 1c0-1 1-1 2-2l2-1-2 1c-1 1-1 2-2 2Zm-69-3v-1h2l1-1-1 1c0 1-1 1-1 1h-1Zm-526-3c-1 0-1-1-1-2l1 1 1 2v1h-1v-2Zm372 0c-1 0-1-1-1-2l1 1 1 2v1h-1v-2Zm86 0-1-2 2 1c1 1 2 2 2 3-1 0-2-1-3-2Zm140 2c0-1 1-1 2-2l2-1-2 1c-1 1-1 2-2 2Zm6-8c2-3 3-5 4-5l-3 5c-2 2-3 4-4 4l3-4Zm-235 0c-1-2-1-3-1-4h1l1 3c1 2 1 3 1 4h-1l-1-3Zm169 3c0-1 1-1 2-2l2-1c0 1-1 1-2 2l-2 1Zm-485-4v-1l1 1v2h-1v-2Zm492 0c0-1 1-1 2-2l2-1c0 1-1 1-2 2l-2 1Zm-549-4c-1 0-1-1-1-2l1 1 1 2v1h-1v-2Zm371-3c-1-1-1-2-1-3h1v3c1 1 1 2 1 3h-1v-3Zm83 1-1-2c1 0 1 1 2 2l1 2c-1 0-1-1-2-2Zm-399-2v-2l1 1v2l-1 2v-3Zm506 1c0-1 1-1 2-2l2-1c0 1-1 1-2 2l-2 1Zm55-3c0-2 1-3 2-3l-1 2c-1 1-2 2-2 3h-1l2-2Zm-164-2c-1 0-1-2-1-2v-1l1 2 1 2v1h-1v-2Zm-455-2c-1-1-1-2-1-3h1v3c1 1 1 2 1 3h-1v-3Zm57 1v-1l1 1v2h-1v-2Zm315 0v-1l1 1v2h-1v-2Zm203-1c0-1 1-2 3-2l2-2v1c-1 0-2 1-3 2l-2 1Zm-204-3v-1l1 1v2h-1v-2Zm-315-4v-4l1 2v4l-1 3v-5Zm568 2c1-1 1-2 2-2l-1 2c-1 1-1 2-2 2l1-2Zm-626-1v-1l1 1v2h-1v-2Zm583 2c0-1 1-1 2-2l2-1-2 1c-1 1-1 2-2 2Zm-129-3v-1l1 1v2h-1v-2Zm-82-1v-1l1 1v2h-1v-2Zm217-1c1-2 3-3 3-3l-2 3c-1 1-3 2-3 2l2-2Zm-590-1v-1l1 1v2h-1v-2Zm454-1v-1l1 1v2h-1v-2Zm-82-1v-3l1 1v3l-1 2v-3Zm226-4 4-4-3 4c-3 2-5 4-5 4l4-4Zm35 1c1-1 1-2 2-2l-1 2c-1 1-1 2-2 2l1-2Zm-634-1v-1l1 1v2h-1v-2Zm454 0v-2l1 1v2l-1 2v-3Zm-455-4v-3l1 1v3l-1 2v-3Zm61-2v-4l1 2v4l-1 3v-5Zm312 2v-3l1 1v3l-1 2v-3Zm81-1v-1l1 1v2h-1v-2Zm185-2s0-1 1-1l1-1-1 1v2h-1v-1Zm-267-9v-8l1 4v8l-1 4v-8Zm81 4c-1-2-1-4-1-4h1l1 3v4h-1v-3Zm188 2c0-1 0-2 1-3l1-1v1s0 1-1 2l-1 2v-1Zm-26-5c2-3 5-5 5-5s-2 3-5 5l-4 5 4-5Zm-616-7v-10l1 5v10l-1 6v-11Zm63 7v-1l1 1v2h-1v-2Zm389-7v-1l1 1v2h-1v-2Zm171-1c1-2 3-3 3-3l-2 3c-1 1-3 2-3 2l2-2Zm-172-3v-2l1 1v2l-1 2v-3Zm-383-2c1-1 1-2 2-2l-1 2c-1 1-1 2-2 2l1-2Zm306-1v-2l1 1v2l-1 2v-3Zm254 0c0-1 2-2 2-2l-1 2c-1 1-3 2-3 2l2-2Zm-178-2v-1l1 1v2h-1v-2Zm-380 0c0-1 1-1 2-2l2-1-2 1c-1 1-1 2-2 2Zm560-1c0-1 1-1 2-2l2-1-2 1c-1 1-1 2-2 2Zm20-2v-2l1 1v2l-1 2v-3Zm-275-1v-1l1 1v2h-1v-2Zm74 0v-1l1 1v2h-1v-2Zm-376 0c0-1 1-1 2-2l2-1-2 1c-1 1-1 2-2 2Zm-72-4v-2l1 1v2l-1 2v-3Zm635-1c0-1 1-1 2-2l2-1-2 1c-1 1-1 2-2 2Zm-259-1c0-1 0-2 1-3l1-1v1s0 1-1 2l-1 2v-1Zm274-2v-3l1 1v3l-1 2v-3Zm-649-1v-1l1 1v2h-1v-2Zm83 0 1-1h1v1h-2l-1 1 1-1Zm556-2c0-2 1-3 2-3l-1 2c-1 1-2 2-2 3h-1l2-2Zm-550-1 1-1h1v1h-2l-1 1 1-1Zm352-4-2-4c1 0 2 2 3 4l2 4v1h-1l-2-5Zm-440 2v-1l1 1v2h-1v-2Zm377 0s0-1 1-1l1-1-1 1v2h-1v-1Zm272-2v-3l1 1v4l-1 2v-4Zm-551 0c1-1 2-1 3-1h2l-2 1c-2 0-3 1-3 1h-1l1-1Zm544-2 1-4h1v1l-1 3c-1 2-2 3-3 3l2-3Zm-538 0h2v1h-3l1-1Zm4-1h2l2 1h-5l1-1Zm5-1h2l2 1h-5l1-1Zm7-1h3l2 1h-6l1-1Zm7-1h2l2 1h-5l1-1Zm308-2-2-3 1 1c1 1 3 2 3 3l1 2s-2-1-3-3Zm-300 1h3l2 1h-6l1-1Zm249-1c1-2 3-3 3-3l-2 3c-1 1-3 2-3 2l2-2Zm-243 0h4l2 1h-7l1-1Zm509-1-1-3 1 1c1 0 1 2 1 3l-1 2v-3Zm-500 0h4l2 1h-7l1-1Zm8-1h4l2 1h-8l2-1Zm487 0s0-1 1-1l1-1-1 1v2h-1v-1Zm-476-1h3l2 1h-6l1-1Zm-164 0c0-1 3-7 4-7l-2 3c-1 2-1 4-2 4Zm170 0c0-1 2-1 5-1l4-1-2 1c-2 0-4 1-5 1h-2Zm215-3c1-2 3-3 3-3l-2 3c-1 1-3 2-3 2l2-2Zm41 0-1-1 1 1c1 1 2 1 2 2-1 0-1-1-2-2Zm-246 0h2v1h-3l1-1Zm7-2c1-1 2-1 3-1h1l-2 1c-1 1-2 1-2 1h-1l1-1Zm234-1-1-2 2 1c1 1 2 2 2 3-1 0-2-1-3-2Zm-230 0c0-1 2-2 4-3l3-2-1 1c0 1-1 2-3 3l-3 1Zm-186-4c1-1 1-2 2-2l-1 2c-1 1-1 2-2 2l1-2Zm392-1 1-1h1v1h-2l-1 1 1-1Zm-192-6 6-6-5 6c-4 3-7 6-7 6l6-6Zm198 4h5l3 1h-10l2-1Zm-394-3c0-1 1-1 2-2l2-1-2 1c-1 1-1 2-2 2Zm5-6c1-2 3-3 3-3l-2 3c-1 1-3 2-3 2l2-2Zm199-4 2-4v1s-1 2-2 3l-2 3 2-3Zm-196 0s1-2 3-4l4-2-3 3c-2 2-4 3-4 3Zm199-10c0-2 0-5 1-5v-1 4c0 2 0 5-1 6l-1 1 1-5Zm-191 3s1-2 3-4l4-2-3 3c-2 2-4 3-4 3Zm7-6c0-1 1-1 2-2l2-1-2 1c-1 1-1 2-2 2Zm7-5c0-1 1-1 2-2l2-1-2 1c-1 1-1 2-2 2Zm7-5c0-1 1-1 2-2l2-1c0 1-1 1-2 2l-2 1Zm5-3c0-1 1-1 2-2l2-1c0 1-1 1-2 2l-2 1Zm161-2-1-1 1 1 1 1v1h-1v-2Zm126-4h8l5 1h-17l4-1Zm-12-1h2l2 1h-5l1-1Zm29 0h3l2 1h-6l1-1Zm-33-1h2v1h-3l1-1Zm39 0h2v1h-3l1-1Zm5-1c1 0 2-1 3-1h2l-2 1c-2 0-3 1-4 1h-1l2-1Zm-163-4-3-4 4 3c2 3 4 5 4 5s-2-2-5-4Zm-131 2c1-1 3-2 4-2h1l-3 2c-1 0-3 1-3 1h-1l2-1Zm235-1-1-1h1s1 0 2 1l2 1h-1c-1 0-2 0-3-1Zm69 0c0-1 2-1 3-2l3-1-2 1c-2 1-3 2-3 2h-1Zm-73-2-1-1h1s1 0 2 1v1s-1 0-2-1Zm-220-2c1-1 2-1 3-1h1l-2 1c-1 1-2 1-2 1h-1l1-1Zm299 1c0-1 2-2 4-3l4-2c0 1-6 5-8 5Zm-188-5-1-1h1s1 0 2 1v1s-1 0-2-1Zm95-3-1-1 1 1c1 1 2 1 2 2-1 0-1-1-2-2Zm-186 0h2v1h-3l1-1Zm291 1c0-1 1-1 2-2l2-1-2 1c-1 1-1 2-2 2Zm-284-3h2v1h-3l1-1Zm174-2-2-2 2 2c2 1 3 2 3 3-1 0-2-1-3-3Zm-170 1h2v1h-3l1-1Zm290-5 7-7-6 7c-4 3-7 6-7 6l6-6Zm-283 4c1 0 2-1 4-1h2l-3 1c-1 0-3 1-4 1h-1l2-1Zm9-2h3l2 1h-6l1-1Zm36 0h2l2 1h-5l1-1Zm-24-1h14l8 1h-28l6-1Zm136-2-2-2 2 2c2 1 3 2 3 3-1 0-2-1-3-3Zm-5-5-1-2 2 1c1 1 2 2 2 3-1 0-2-1-3-2Zm138-2c0-1 1-1 2-2l2-1-2 1c-1 1-1 2-2 2Zm-141-3c-1-1-2-2-2-3l-1-1s2 1 3 3l2 3c-1 0-1-1-2-2Zm-7-9v-2h1v1l1 2c-1 0-1 0-2-1Zm158-3v-2h1v1l-1 1-1 2 1-2Zm-160-1v-2h1v1l1 2c-1 0-1 0-2-1Zm162-4c0-1 0-2 1-3l1-1v1s0 1-1 2l-1 2v-1Zm2-5c0-1 0-2 1-3l1-1v1s0 1-1 2l-1 2v-1Zm3-9c0-2 0-4 1-4v2c0 1 0 2-1 3l-1 2 1-3Zm-173-1v-1l1 1v2h-1v-2Zm-1-4v-2l1 1v2l-1 2v-3Zm175-3v-2l1 1v2l-1 2v-3Zm-176-5v-4l1 2v4l-1 2v-4Zm177-8v-10l1 5v10l-1 6v-11Zm-177-7v-4l1 2v4l-1 2v-4Zm176-6v-2l1 1v2l-1 2v-3Zm-175-3v-2l1 1v2l-1 2v-3Zm174-5c-1-1-1-2-1-3h1v3c1 1 1 2 1 3h-1v-3Zm-173 0v-1l1 1v2h-1v-2Zm170-8c-1-2-1-3-1-4h1l1 3c1 2 1 3 1 4h-1l-1-3Zm-4-10-1-2 1 1c1 2 2 3 2 3v1h-1l-1-3Zm-160 1s0-1 1-1l1-1-1 1v2h-1v-1Zm2-4s0-1 1-1l1-1-1 1v2h-1v-1Zm156-2-1-1 1 1 1 1v1h-1v-2Zm-6-8-2-3 1 1c1 1 3 2 3 3l1 2s-2-1-3-3Zm-145 2c0-1 1-1 2-2l2-1-2 1c-1 1-1 2-2 2Zm3-4c0-1 1-1 2-2l2-1-2 1c-1 1-1 2-2 2Zm133-9-6-6 6 6 7 7-7-7Zm-125 0 4-4-3 4c-2 1-4 3-4 3l3-3Zm7-6c0-1 2-2 2-2l-1 2c-1 1-3 2-3 2l2-2Zm106-3-4-4 3 2c2 1 4 2 4 3l1 1-4-2Zm-103 1c0-1 1-1 2-2l2-1-2 1c-1 1-1 2-2 2Zm4-3c0-1 1-2 3-2l3-2c0 1-1 2-3 3l-3 1Zm8-5 1-1h1v1h-2l-1 1 1-1Zm7-3c1-1 4-2 5-2l3-1-4 2c-3 1-5 2-5 2h-1l2-1Zm67 0-1-1h1s1 0 2 1l2 1h-1c-1 0-2 0-3-1Zm-56-4c1 0 2-1 3-1h2l-2 1c-2 0-3 1-4 1h-1l2-1Zm44 0-2-1h1c1 0 2 1 4 1l2 1h-2c-1 0-2-1-3-1Zm-37-2h2l2 1h-5l1-1Zm29 0h2l2 1h-5l1-1Zm-22-1h6l3 1h-12l3-1Zm12 0h6l3 1h-12l3-1Z"/>
  <path fill="#cacaca" d="M538 66c0-1 1-1 2-2l2-1-2 1c-1 1-1 2-2 2Z"/>
</svg>